<svg xmlns="http://www.w3.org/2000/svg" height="800" width="1200" fill="#FFF" viewBox="-28.175325 -6.62375 244.18615 39.7425"><path d="M187.8355 17.08c0-5.44-3.71-8.61-8.6-8.61a8.53 8.53 0 00-8.83 8.9 8.63 8.63 0 008.83 9 10.3 10.3 0 005.15-1.3 7 7 0 003.3-4.3h-3.59c-.88 1.58-2.45 2.35-4.67 2.35-3 0-5.23-2.35-5.23-4.59h13.6c.04-.64.04-1.04.04-1.45zm-13.68-1.71a4.75 4.75 0 014.94-3.72c2.57 0 4.68 1.54 5 3.72h-9.89zm-160.47 4.25a5.16 5.16 0 11.06-4.25h4a9 9 0 100 4.25h-4zm18.31-10.39a8.06 8.06 0 00-3.6-.76 6.69 6.69 0 00-3.62 1.11v-.5h-3.68v16.69h3.7v-8a13.36 13.36 0 01.23-3.25v-.08a2.82 2.82 0 011.38-1.67 3.72 3.72 0 014 0zm13.97-.15v8a13.36 13.36 0 01-.23 3.25v.08a2.82 2.82 0 01-1.36 1.66 3.72 3.72 0 01-4 0 2.82 2.82 0 01-1.36-1.66v-.08a13.36 13.36 0 01-.23-3.25v-8h-3.69v9.1a11.14 11.14 0 00.63 4.39 5.65 5.65 0 003 3 8.06 8.06 0 003.6.76 6.69 6.69 0 003.62-1.11v.55h3.65V9.08zm11.88 16.69v-8a13.36 13.36 0 01.25-3.26v-.08a2.82 2.82 0 011.36-1.66 3.72 3.72 0 014 0 2.82 2.82 0 011.36 1.66v.08a13.36 13.36 0 01.21 3.26v8h3.67v-9.1a11.14 11.14 0 00-.6-4.39 5.65 5.65 0 00-3-3 8.06 8.06 0 00-3.6-.76 6.69 6.69 0 00-3.62 1.11v-.5h-3.7v16.64zm27.88-6.15a5.16 5.16 0 11.06-4.25h4a9 9 0 100 4.25h-4zm11.11 6.15v-8a13.36 13.36 0 01.23-3.25v-.08a2.82 2.82 0 011.38-1.67 3.72 3.72 0 014 0 2.82 2.82 0 011.36 1.66v.08a13.36 13.36 0 01.23 3.25v8h3.67v-9.1a11.14 11.14 0 00-.63-4.39 5.65 5.65 0 00-3-3 8.06 8.06 0 00-3.6-.76 6.69 6.69 0 00-3.62 1.11V0h-3.69v25.77zm24.1-17.3h-.66a8.88 8.88 0 00-4.4 1.55V0h-3.65v25.77h3.67v-.94a9 9 0 105.04-16.36zm5.16 9.64v.16a5.12 5.12 0 01-.14.63 5.11 5.11 0 01-.25.65v.08a5.19 5.19 0 01-3.61 2.83l-.49.08h-.11a5.08 5.08 0 01-.56 0 5.16 5.16 0 01-.7-.05h-.16a5.11 5.11 0 01-1.31-.4h-.1a5.18 5.18 0 01-1.16-.78 5.21 5.21 0 01-.91-1.09 5.16 5.16 0 01-.33-.64 5.13 5.13 0 01.06-4.25 5.17 5.17 0 014.14-2.93 5.11 5.11 0 01.53 0 5.17 5.17 0 015.1 5.02 5.15 5.15 0 010 .69zm41.34-4.04v-.08c0-2.72-2.09-5.49-6.75-5.54-4.66-.05-6.68 2.74-6.74 5.42v.2c.1 1.57 1 3.57 4.48 4.39l3.1.7c.8.18 2.16.63 2.27 1.65 0 1.41-1.81 2.15-3.11 2.15-1.5 0-3.11-.83-3.11-2.16v-.08h-3.63v.05c0 2.72 2.09 5.49 6.75 5.54 4.66.05 6.75-2.81 6.75-5.54v-.05c-.08-1.59-.94-3.62-4.48-4.44l-3.1-.7c-.68-.15-2.27-.61-2.27-1.62 0-1.58 1.61-2.14 3.11-2.14 1.5 0 3.11.83 3.11 2.16v.09h3.63zm-34.54 3.35a9 9 0 0014 7.4v.95h3.67V9.08h-3.65v1a8.88 8.88 0 00-4.4-1.55h-.66a9 9 0 00-8.96 8.89zm3.79 0a5.17 5.17 0 015.16-5.16 5.11 5.11 0 01.53 0 5.17 5.17 0 014.14 2.93 5.13 5.13 0 01.06 4.25 5.16 5.16 0 01-.33.64 5.21 5.21 0 01-.91 1.09 5.18 5.18 0 01-1.16.78h-.1a5.11 5.11 0 01-1.31.4h-.16a5.16 5.16 0 01-.7.05 5.08 5.08 0 01-.56 0h-.07l-.49-.08a5.19 5.19 0 01-3.53-2.81v-.08a5.11 5.11 0 01-.25-.65 5.12 5.12 0 01-.14-.63v-.16a5.15 5.15 0 01-.18-.57z"/></svg>